HIERARCHY
ROOT hip
{
  OFFSET 0 0 0
  CHANNELS 6 Xposition Yposition Zposition Zrotation Yrotation Xrotation
  JOINT abdomen
  {
    OFFSET 0 20.6881 -0.73152
    CHANNELS 3 Zrotation Xrotation Yrotation
    JOINT chest
    {
      OFFSET 0 11.7043 -0.48768
      CHANNELS 3 Zrotation Xrotation Yrotation
      JOINT neck
      {
        OFFSET 0 22.1894 -2.19456
        CHANNELS 3 Zrotation Xrotation Yrotation
        JOINT head
        {
          OFFSET -0.24384 7.07133 1.2192
          CHANNELS 3 Zrotation Xrotation Yrotation
          JOINT leftEye
          {
            OFFSET 4.14528 8.04674 8.04672
            CHANNELS 3 Zrotation Xrotation Yrotation
            End Site
            {
              OFFSET 1 0 0
            }
          }
          JOINT rightEye
          {
            OFFSET -3.6576 8.04674 8.04672
            CHANNELS 3 Zrotation Xrotation Yrotation
            End Site
            {
              OFFSET 1 0 0
            }
          }
        }
      }
      JOINT rCollar
      {
        OFFSET -2.68224 19.2634 -4.8768
        CHANNELS 3 Zrotation Xrotation Yrotation
        JOINT rShldr
        {
          OFFSET -8.77824 -1.95073 1.46304
          CHANNELS 3 Zrotation Xrotation Yrotation
          JOINT rForeArm
          {
            OFFSET -28.1742 -1.7115 0.48768
            CHANNELS 3 Zrotation Xrotation Yrotation
            JOINT rHand
            {
              OFFSET -22.5879 0.773209 7.07136
              CHANNELS 3 Zrotation Xrotation Yrotation
              JOINT rThumb1
              {
                OFFSET -1.2192 -0.487915 3.41376
                CHANNELS 3 Zrotation Xrotation Yrotation
                JOINT rThumb2
                {
                  OFFSET -3.37035 -0.52449 3.41376
                  CHANNELS 3 Zrotation Xrotation Yrotation
                  End Site
                  {
                    OFFSET -1.78271 -1.18214 1.43049
                  }
                }
              }
              JOINT rIndex1
              {
                OFFSET -7.75947 0.938293 5.60832
                CHANNELS 3 Zrotation Xrotation Yrotation
                JOINT rIndex2
                {
                  OFFSET -2.54057 -0.884171 1.56538
                  CHANNELS 3 Zrotation Xrotation Yrotation
                  End Site
                  {
                    OFFSET -1.62519 -0.234802 1.16502
                  }
                }
              }
              JOINT rMid1
              {
                OFFSET -8.24714 1.18213 3.41376
                CHANNELS 3 Zrotation Xrotation Yrotation
                JOINT rMid2
                {
                  OFFSET -3.10165 -0.590103 1.0647
                  CHANNELS 3 Zrotation Xrotation Yrotation
                  End Site
                  {
                    OFFSET -2.48547 -0.328903 0.83742
                  }
                }
              }
              JOINT rRing1
              {
                OFFSET -8.82822 0.546677 1.51678
                CHANNELS 3 Zrotation Xrotation Yrotation
                JOINT rRing2
                {
                  OFFSET -2.60934 -0.819778 -0.0198488
                  CHANNELS 3 Zrotation Xrotation Yrotation
                  End Site
                  {
                    OFFSET -2.33842 -0.294052 0.168128
                  }
                }
              }
              JOINT rPinky1
              {
                OFFSET -8.27202 -0.0477905 -0.4584
                CHANNELS 3 Zrotation Xrotation Yrotation
                JOINT rPinky2
                {
                  OFFSET -1.82734 -0.647385 -0.700984
                  CHANNELS 3 Zrotation Xrotation Yrotation
                  End Site
                  {
                    OFFSET -1.69225 -0.51767 -0.607171
                  }
                }
              }
            }
          }
        }
      }
      JOINT lCollar
      {
        OFFSET 2.68224 19.2634 -4.8768
        CHANNELS 3 Zrotation Xrotation Yrotation
        JOINT lShldr
        {
          OFFSET 8.77824 -1.95073 1.46304
          CHANNELS 3 Zrotation Xrotation Yrotation
          JOINT lForeArm
          {
            OFFSET 28.1742 -1.7115 0.48768
            CHANNELS 3 Zrotation Xrotation Yrotation
            JOINT lHand
            {
              OFFSET 22.5879 0.773209 7.07136
              CHANNELS 3 Zrotation Xrotation Yrotation
              JOINT lThumb1
              {
                OFFSET 1.2192 -0.487915 3.41376
                CHANNELS 3 Zrotation Xrotation Yrotation
                JOINT lThumb2
                {
                  OFFSET 3.37035 -0.52449 3.41376
                  CHANNELS 3 Zrotation Xrotation Yrotation
                  End Site
                  {
                    OFFSET 1.78271 -1.18214 1.43049
                  }
                }
              }
              JOINT lIndex1
              {
                OFFSET 7.75947 0.938293 5.60832
                CHANNELS 3 Zrotation Xrotation Yrotation
                JOINT lIndex2
                {
                  OFFSET 2.54057 -0.884171 1.56538
                  CHANNELS 3 Zrotation Xrotation Yrotation
                  End Site
                  {
                    OFFSET 1.62519 -0.234802 1.16502
                  }
                }
              }
              JOINT lMid1
              {
                OFFSET 8.24714 1.18213 3.41376
                CHANNELS 3 Zrotation Xrotation Yrotation
                JOINT lMid2
                {
                  OFFSET 3.10165 -0.590103 1.0647
                  CHANNELS 3 Zrotation Xrotation Yrotation
                  End Site
                  {
                    OFFSET 2.48547 -0.328903 0.83742
                  }
                }
              }
              JOINT lRing1
              {
                OFFSET 8.82822 0.546677 1.51678
                CHANNELS 3 Zrotation Xrotation Yrotation
                JOINT lRing2
                {
                  OFFSET 2.60934 -0.819778 -0.0198488
                  CHANNELS 3 Zrotation Xrotation Yrotation
                  End Site
                  {
                    OFFSET 2.33842 -0.294052 0.168128
                  }
                }
              }
              JOINT lPinky1
              {
                OFFSET 8.27202 -0.0477905 -0.4584
                CHANNELS 3 Zrotation Xrotation Yrotation
                JOINT lPinky2
                {
                  OFFSET 1.82734 -0.647385 -0.700984
                  CHANNELS 3 Zrotation Xrotation Yrotation
                  End Site
                  {
                    OFFSET 1.69225 -0.51767 -0.607171
                  }
                }
              }
            }
          }
        }
      }
    }
  }
  JOINT rButtock
  {
    OFFSET -8.77824 4.35084 1.2192
    CHANNELS 3 Zrotation Xrotation Yrotation
    JOINT rThigh
    {
      OFFSET 0 -1.70687 -2.19456
      CHANNELS 3 Zrotation Xrotation Yrotation
      JOINT rShin
      {
        OFFSET 0 -36.8199 0.73152
        CHANNELS 3 Zrotation Xrotation Yrotation
        JOINT rFoot
        {
          OFFSET 0.73152 -45.1104 -5.12064
          CHANNELS 3 Zrotation Xrotation Yrotation
          End Site
          {
            OFFSET -1.1221 -3.69964 12.103
          }
        }
      }
    }
  }
  JOINT lButtock
  {
    OFFSET 8.77824 4.35084 1.2192
    CHANNELS 3 Zrotation Xrotation Yrotation
    JOINT lThigh
    {
      OFFSET 0 -1.70687 -2.19456
      CHANNELS 3 Zrotation Xrotation Yrotation
      JOINT lShin
      {
        OFFSET 0 -36.8199 0.73152
        CHANNELS 3 Zrotation Xrotation Yrotation
        JOINT lFoot
        {
          OFFSET -0.73152 -45.1104 -5.12064
          CHANNELS 3 Zrotation Xrotation Yrotation
          End Site
          {
            OFFSET 1.1221 -3.69964 12.103
          }
        }
      }
    }
  }
}
MOTION
Frames:	4
Frame Time:	0.00833333
18.4741 73.1846 33.7267 181.681 -19.5406 -157.559 -3.87258 53.2046 7.68413 0.303427 0.578783 -1.49997 -0.527491 -13.3061 -2.8628 9.26011 4.60922 -6.15747 -0.0 0.0 0.0 -0.0 0.0 0.0 -3.6543e-14 -5.10799e-14 1.50195e-14 69.7069 35.1725 29.3026 -25.7339 -22.7705 55.6885 -1.97898 36.5693 5.98442 5.8857e-10 1.17251e-10 -3.56569e-10 1.00576e-09 2.07764e-10 -6.33178e-10 5.88572e-10 1.17251e-10 -3.56576e-10 7.73091 5.47488 0.417314 5.88567e-10 1.17249e-10 -3.56561e-10 2.90554 0.965183 0.102902 5.8857e-10 1.17251e-10 -3.56566e-10 10.2786 0.731801 0.0259123 5.8856e-10 1.17255e-10 -3.56559e-10 2.22167 -0.733487 -0.20892 -3.66321e-14 -5.112e-14 1.46965e-14 -29.2562 55.0529 -52.3666 27.6576 -28.855 -65.4163 1.74749 34.7104 -5.58689 -1.02732e-09 2.51819e-11 3.78946e-10 -1.76426e-09 7.89972e-11 6.84072e-10 -1.02731e-09 2.51828e-11 3.78958e-10 -7.73091 5.47488 -0.417314 -1.02732e-09 2.51756e-11 3.78947e-10 -2.90554 0.965183 -0.102902 -1.02731e-09 2.51812e-11 3.7895e-10 -10.2786 0.731801 -0.0259123 -1.02731e-09 2.51828e-11 3.78941e-10 -2.22167 -0.733487 0.20892 -2.03217e-16 0.0 -3.88251e-19 9.02005 -56.2715 -12.1108 -0.753825 56.442 1.72378 -8.20013 -13.9104 -21.0652 2.03217e-16 0.0 3.88251e-19 -26.3838 -70.5485 -36.9937 0.38242 40.0626 -0.430041 -1.17452 10.9741 15.8401
18.4097 73.0785 33.0384 181.768 -19.3738 -157.482 -3.74055 52.9823 7.52387 0.255697 0.649175 -1.50031 -0.478807 -13.3116 -2.8153 9.22151 4.66507 -6.09536 -0.0 0.0 0.0 -0.0 0.0 0.0 -1.5578e-13 3.02337e-14 6.13748e-14 69.7665 35.1212 29.4197 -25.6839 -22.6495 55.4932 -1.98091 36.584 5.98765 2.13552e-09 -9.98729e-11 1.62399e-11 3.68436e-09 -1.42683e-10 -3.31422e-11 2.13552e-09 -9.9873e-11 1.62336e-11 7.73091 5.47488 0.417314 2.13552e-09 -9.98747e-11 1.62526e-11 2.90554 0.965183 0.102902 2.13552e-09 -9.98728e-11 1.62447e-11 10.2786 0.731801 0.0259123 2.13551e-09 -9.98686e-11 1.62526e-11 2.22167 -0.733487 -0.20892 -1.55875e-13 3.0197e-14 6.10269e-14 -29.4494 54.8887 -52.3001 27.6097 -28.6459 -65.0916 1.75711 34.7932 -5.60408 -1.58555e-09 -9.54962e-12 5.86141e-10 -2.7243e-09 3.20059e-11 1.05585e-09 -1.58555e-09 -9.54882e-12 5.86154e-10 -7.73091 5.47488 -0.417314 -1.58555e-09 -9.55628e-12 5.86141e-10 -2.90554 0.965183 -0.102902 -1.58555e-09 -9.54952e-12 5.86144e-10 -10.2786 0.731801 -0.0259123 -1.58555e-09 -9.54842e-12 5.86135e-10 -2.22167 -0.733487 0.20892 -2.03217e-16 0.0 -3.88251e-19 9.10064 -56.1542 -12.1864 -0.778227 56.9261 1.74626 -8.26487 -14.0241 -21.0846 2.03217e-16 0.0 3.88251e-19 -26.6666 -70.5873 -36.7977 0.371872 39.4804 -0.40808 -1.23329 11.596 14.6869
18.3289 72.939 32.3938 181.833 -19.1969 -157.306 -3.60759 52.6819 7.3454 0.216449 0.721284 -1.50203 -0.437 -13.337 -2.76608 9.17983 4.74351 -6.02794 -0.0 0.0 0.0 -0.0 0.0 0.0 -2.22744e-13 4.01559e-15 1.53765e-13 69.8019 35.0867 29.5317 -25.637 -22.5367 55.3109 -1.9809 36.584 5.98764 2.45217e-09 -7.31754e-11 -7.44616e-11 4.22766e-09 -8.99324e-11 -1.98569e-10 2.45217e-09 -7.31753e-11 -7.44692e-11 7.73091 5.47488 0.417314 2.45216e-09 -7.31769e-11 -7.44493e-11 2.90554 0.965183 0.102902 2.45217e-09 -7.31753e-11 -7.44567e-11 10.2786 0.731801 0.0259123 2.45216e-09 -7.31717e-11 -7.44488e-11 2.22167 -0.733487 -0.20892 -2.22838e-13 3.98554e-15 1.53402e-13 -29.6276 54.731 -52.2331 27.5704 -28.478 -64.8308 1.73747 34.6261 -5.56928 -1.22138e-09 3.57069e-10 8.73196e-10 -2.09035e-09 6.54151e-10 1.54009e-09 -1.22137e-09 3.57069e-10 8.73212e-10 -7.73091 5.47488 -0.417314 -1.22138e-09 3.57064e-10 8.73197e-10 -2.90554 0.965183 -0.102902 -1.22138e-09 3.5707e-10 8.73199e-10 -10.2786 0.731801 -0.0259123 -1.22137e-09 3.5707e-10 8.73188e-10 -2.22167 -0.733487 0.20892 -2.03217e-16 0.0 -3.88251e-19 9.17744 -56.1729 -12.2504 -0.808778 57.5304 1.77714 -8.29825 -14.1047 -21.0496 2.03217e-16 0.0 3.88251e-19 -27.3029 -70.7086 -37.2168 0.371104 39.4216 -0.403674 -1.21988 12.1062 13.4697
18.242 72.7832 31.76 181.887 -19.0128 -157.107 -3.46094 52.3092 7.14013 0.181928 0.796973 -1.50576 -0.401439 -13.3766 -2.7143 9.1362 4.83857 -5.9535 -0.0 0.0 0.0 -0.0 0.0 0.0 -2.61337e-13 -8.82502e-14 2.81641e-13 69.8196 35.0654 29.6407 -25.5935 -22.4333 55.1422 -1.9793 36.5717 5.98495 2.08521e-09 9.7438e-11 -4.41522e-10 3.584e-09 2.01304e-10 -8.21793e-10 2.08521e-09 9.74387e-11 -4.41532e-10 7.73091 5.47488 0.417314 2.08521e-09 9.74372e-11 -4.41513e-10 2.90554 0.965183 0.102902 2.08521e-09 9.74382e-11 -4.41518e-10 10.2786 0.731801 0.0259123 2.0852e-09 9.74406e-11 -4.41511e-10 2.22167 -0.733487 -0.20892 -2.61425e-13 -8.82707e-14 2.81265e-13 -29.7979 54.5708 -52.1625 27.5379 -28.3406 -64.6137 1.69488 34.2581 -5.49321 -3.18067e-10 9.67493e-10 1.22504e-09 -5.24409e-10 1.68327e-09 2.12105e-09 -3.18063e-10 9.67492e-10 1.22506e-09 -7.73091 5.47488 -0.417314 -3.18066e-10 9.6749e-10 1.22504e-09 -2.90554 0.965183 -0.102902 -3.18066e-10 9.67494e-10 1.22504e-09 -10.2786 0.731801 -0.0259123 -3.18065e-10 9.67493e-10 1.22503e-09 -2.22167 -0.733487 0.20892 -2.03217e-16 0.0 -3.88251e-19 9.23998 -56.3204 -12.3227 -0.846249 58.2487 1.81615 -8.30355 -14.1524 -20.9693 2.03217e-16 0.0 3.88251e-19 -28.2379 -70.9025 -38.1126 0.378866 39.8173 -0.412807 -1.15981 12.5892 12.1884
